<svg id="svg" version="1.1" xmlns="http://www.w3.org/2000/svg" xmlns:xlink="http://www.w3.org/1999/xlink" width="400" height="400" viewBox="0, 0, 400,400"><g id="svgg"><path id="path0" d="M96.074 15.278 C 96.469 26.920,97.742 41.082,98.730 44.815 C 99.026 45.935,99.412 47.769,99.587 48.889 C 100.475 54.578,105.224 70.871,106.328 72.019 C 106.514 72.212,106.667 72.714,106.667 73.134 C 106.667 76.662,116.576 94.618,124.541 105.523 C 127.313 109.318,139.338 121.361,142.563 123.572 C 143.292 124.072,144.742 125.098,145.784 125.852 C 157.229 134.130,159.829 135.666,173.519 142.234 C 177.869 144.321,186.990 148.059,189.815 148.912 C 190.426 149.097,191.259 149.406,191.667 149.598 C 192.074 149.790,193.657 150.298,195.185 150.725 C 196.713 151.153,198.713 151.733,199.630 152.014 C 200.546 152.295,202.546 152.804,204.074 153.144 C 205.602 153.484,207.602 154.001,208.519 154.291 C 209.435 154.581,210.586 154.818,211.076 154.817 L 211.967 154.815 211.730 147.500 C 211.418 137.862,210.195 125.786,208.550 116.111 C 208.343 114.889,207.417 110.928,206.494 107.308 C 205.570 103.689,204.810 100.356,204.803 99.901 C 204.797 99.446,204.547 98.751,204.247 98.355 C 203.948 97.960,203.704 97.249,203.704 96.776 C 203.704 96.303,203.541 95.626,203.343 95.273 C 202.675 94.084,201.111 90.028,201.111 89.486 C 201.111 89.190,200.875 88.477,200.586 87.900 C 200.297 87.324,199.438 85.519,198.676 83.889 C 195.936 78.024,192.527 71.285,192.009 70.712 C 191.719 70.390,191.481 69.962,191.481 69.761 C 191.481 69.560,190.403 67.867,189.086 65.998 C 187.768 64.130,186.450 62.140,186.158 61.578 C 185.865 61.016,185.177 60.139,184.628 59.630 C 184.079 59.120,183.053 57.837,182.347 56.778 C 176.461 47.944,157.642 32.943,142.593 25.089 C 140.046 23.760,137.463 22.407,136.852 22.082 C 136.241 21.757,134.946 21.150,133.974 20.733 C 126.227 17.408,121.306 15.407,119.259 14.752 C 116.965 14.017,115.898 13.653,112.963 12.605 C 112.250 12.351,111.000 12.009,110.185 11.844 C 109.370 11.680,107.954 11.293,107.037 10.983 C 103.160 9.674,101.608 9.256,100.636 9.257 C 100.070 9.258,99.008 9.009,98.276 8.704 C 95.711 7.632,95.804 7.354,96.074 15.278 " stroke="none" fill="#5ccc0d" fill-rule="evenodd"></path><path id="path1" d="M255.185 121.089 C 254.472 121.233,253.164 121.726,252.279 122.183 C 251.393 122.640,250.437 122.926,250.154 122.817 C 249.870 122.708,249.678 122.756,249.727 122.924 C 249.823 123.258,244.191 127.593,243.661 127.593 C 243.481 127.593,243.375 127.683,243.426 127.793 C 243.623 128.219,241.024 131.101,240.651 130.870 C 240.416 130.725,240.364 130.802,240.523 131.058 C 240.670 131.296,240.434 131.947,239.999 132.504 C 235.946 137.701,232.217 144.447,229.978 150.634 C 229.302 152.502,228.655 153.973,228.541 153.903 C 228.307 153.758,228.309 153.720,227.943 164.009 L 227.675 171.537 226.337 172.391 C 225.602 172.861,224.355 173.762,223.567 174.395 C 222.779 175.027,221.961 175.438,221.751 175.308 C 221.540 175.177,221.477 175.248,221.611 175.466 C 221.928 175.978,217.434 180.054,216.893 179.745 C 216.666 179.616,216.612 179.654,216.772 179.830 C 217.144 180.238,208.505 188.924,208.024 188.627 C 207.826 188.504,207.769 188.576,207.899 188.785 C 208.028 188.995,207.762 189.573,207.308 190.071 C 206.853 190.568,205.851 191.679,205.081 192.539 C 204.310 193.399,203.520 194.004,203.326 193.884 C 203.131 193.764,203.045 193.882,203.136 194.147 C 203.335 194.731,197.306 202.074,196.730 201.949 C 196.506 201.900,196.397 202.067,196.487 202.319 C 196.578 202.571,196.030 203.593,195.270 204.589 C 194.510 205.585,192.876 208.002,191.638 209.960 C 190.401 211.917,189.180 213.473,188.926 213.417 C 188.671 213.361,188.571 213.489,188.702 213.701 C 189.035 214.239,187.434 216.727,186.948 216.427 C 186.717 216.284,186.660 216.356,186.812 216.602 C 187.168 217.178,186.357 218.599,185.850 218.286 C 185.600 218.132,185.546 218.204,185.712 218.472 C 186.078 219.064,184.150 222.313,183.626 221.989 C 183.384 221.839,183.324 221.908,183.478 222.157 C 183.835 222.734,183.023 224.155,182.517 223.842 C 182.286 223.699,182.212 223.757,182.346 223.975 C 182.594 224.376,177.628 235.005,177.016 235.384 C 176.824 235.502,176.667 235.860,176.667 236.180 C 176.667 237.508,173.337 245.063,172.930 244.660 C 172.846 244.577,172.757 244.953,172.731 245.495 C 172.705 246.038,171.913 248.436,170.972 250.825 C 170.030 253.214,169.253 255.464,169.246 255.825 C 169.239 256.186,168.995 256.898,168.704 257.407 C 168.413 257.917,168.168 258.739,168.161 259.235 C 168.154 259.731,167.841 260.814,167.465 261.642 C 167.089 262.471,166.574 264.148,166.320 265.370 C 166.067 266.593,165.706 268.259,165.519 269.074 C 165.332 269.889,164.995 271.639,164.770 272.963 C 164.546 274.287,164.129 275.825,163.843 276.380 C 163.558 276.935,163.220 278.435,163.092 279.713 C 162.965 280.991,162.694 282.360,162.491 282.755 C 162.288 283.150,161.988 284.567,161.826 285.904 C 161.664 287.240,161.202 290.583,160.801 293.333 C 159.209 304.249,158.500 314.558,158.534 326.313 C 158.560 335.041,160.063 348.772,161.324 351.789 C 161.614 352.484,161.858 353.575,161.865 354.212 C 161.872 354.849,162.116 355.787,162.407 356.296 C 162.699 356.806,162.948 357.556,162.962 357.963 C 162.977 358.370,163.310 359.370,163.704 360.185 C 164.097 361.000,164.425 362.050,164.432 362.518 C 164.439 362.987,164.707 363.877,165.027 364.496 C 165.347 365.116,165.530 365.828,165.434 366.079 C 165.338 366.329,165.576 366.732,165.963 366.974 C 166.350 367.216,166.667 367.586,166.667 367.796 C 166.667 368.216,169.004 373.022,170.350 375.370 C 171.692 377.712,173.206 379.533,177.276 383.704 C 179.363 385.843,181.038 387.743,180.999 387.928 C 180.959 388.112,181.181 388.300,181.494 388.346 C 181.806 388.392,183.270 389.211,184.748 390.167 C 187.947 392.237,190.988 393.659,194.444 394.703 C 198.189 395.833,201.736 396.658,202.870 396.662 C 203.532 396.665,204.074 396.796,204.074 396.954 C 204.074 397.112,204.758 397.177,205.593 397.097 C 206.429 397.017,207.470 397.125,207.908 397.336 C 209.931 398.313,211.543 398.237,218.328 396.844 C 219.954 396.510,222.064 396.292,223.015 396.359 C 223.967 396.426,224.674 396.367,224.588 396.227 C 224.501 396.088,225.225 395.865,226.197 395.733 C 227.168 395.600,228.630 395.262,229.444 394.980 C 230.259 394.699,231.509 394.421,232.222 394.364 C 232.935 394.306,233.739 394.051,234.008 393.796 C 234.277 393.542,234.798 393.333,235.165 393.333 C 236.286 393.333,248.316 387.609,249.659 386.436 C 249.980 386.156,250.398 385.926,250.586 385.926 C 250.774 385.926,251.755 385.338,252.765 384.620 C 253.775 383.902,254.825 383.400,255.098 383.505 C 255.371 383.610,255.510 383.559,255.407 383.393 C 255.229 383.104,258.218 380.370,258.712 380.370 C 258.843 380.370,259.659 379.789,260.527 379.077 C 261.395 378.366,262.242 377.908,262.408 378.059 C 262.575 378.210,262.605 378.147,262.476 377.920 C 262.177 377.397,263.461 376.199,263.919 376.573 C 264.106 376.726,264.139 376.704,263.992 376.522 C 263.694 376.157,267.352 371.983,267.841 372.130 C 268.010 372.181,268.106 372.014,268.056 371.759 C 268.005 371.505,268.184 371.342,268.453 371.398 C 268.723 371.454,268.842 371.335,268.718 371.134 C 268.593 370.932,268.789 370.457,269.153 370.077 C 270.226 368.957,271.545 367.345,272.382 366.132 C 272.811 365.510,273.945 364.000,274.902 362.778 C 276.738 360.431,278.807 357.216,280.264 354.444 C 280.746 353.528,281.467 352.402,281.866 351.942 C 282.266 351.482,282.593 350.794,282.593 350.413 C 282.593 349.599,283.453 348.774,283.890 349.170 C 284.056 349.321,284.082 349.252,283.948 349.016 C 283.813 348.780,284.286 347.341,284.999 345.818 C 285.713 344.295,286.296 342.863,286.296 342.635 C 286.296 342.408,286.452 342.222,286.642 342.222 C 286.832 342.222,287.096 341.847,287.229 341.389 C 287.469 340.558,289.595 335.308,290.588 333.092 C 290.876 332.450,291.112 331.617,291.114 331.240 C 291.115 330.864,291.447 330.056,291.852 329.444 C 292.257 328.833,292.589 327.990,292.590 327.571 C 292.591 327.151,292.837 326.485,293.136 326.089 C 293.435 325.694,293.685 325.014,293.692 324.577 C 293.698 324.141,294.023 323.071,294.413 322.200 L 295.123 320.615 293.672 319.839 C 287.166 316.359,283.789 307.434,286.241 300.199 L 286.990 297.991 285.585 296.680 C 277.353 289.000,280.253 274.905,290.863 271.037 C 292.880 270.301,293.010 270.184,292.786 269.291 C 290.367 259.653,294.523 247.766,302.293 242.093 C 303.578 241.155,304.910 240.175,305.253 239.916 C 305.784 239.515,305.823 239.167,305.519 237.593 C 305.028 235.049,304.203 225.443,303.880 218.519 C 303.709 214.839,303.354 211.780,302.893 210.000 C 302.497 208.472,302.023 205.889,301.840 204.259 C 301.178 198.366,301.046 197.532,300.178 193.704 C 299.692 191.565,299.107 188.565,298.876 187.037 C 298.646 185.509,298.221 183.712,297.932 183.043 C 297.644 182.374,297.406 181.291,297.405 180.636 C 297.404 179.980,297.179 179.016,296.906 178.493 C 296.633 177.969,296.297 176.697,296.161 175.665 C 296.024 174.633,295.648 173.259,295.325 172.612 C 295.002 171.965,294.808 170.954,294.894 170.367 C 294.981 169.779,294.930 169.373,294.781 169.465 C 294.633 169.557,294.061 168.173,293.509 166.390 C 292.958 164.607,292.283 162.565,292.010 161.852 C 291.737 161.139,291.350 159.972,291.150 159.259 C 290.550 157.121,289.600 154.653,289.233 154.278 C 289.044 154.084,288.889 153.699,288.889 153.422 C 288.889 153.144,288.457 152.004,287.929 150.888 C 287.401 149.772,287.062 148.618,287.175 148.323 C 287.288 148.028,287.214 147.826,287.010 147.875 C 286.806 147.923,286.301 147.130,285.888 146.111 C 285.475 145.093,284.877 143.759,284.560 143.148 C 284.243 142.537,283.636 141.370,283.211 140.556 C 282.486 139.167,280.942 136.727,278.071 132.437 C 272.125 123.549,263.687 119.365,255.185 121.089 M249.392 200.753 C 249.626 201.052,250.067 201.350,250.372 201.415 C 250.984 201.546,253.405 203.755,253.182 203.979 C 253.105 204.056,253.449 204.527,253.948 205.026 C 254.447 205.524,254.763 206.080,254.652 206.261 C 254.540 206.441,254.715 206.691,255.041 206.816 C 255.378 206.946,255.541 207.281,255.420 207.596 C 255.304 207.900,255.380 208.148,255.589 208.148 C 255.798 208.148,255.867 208.315,255.741 208.519 C 255.615 208.722,255.673 208.889,255.869 208.889 C 256.289 208.889,257.478 212.179,257.213 212.607 C 257.114 212.768,257.202 212.956,257.410 213.025 C 257.760 213.142,258.223 215.198,258.814 219.259 C 259.120 221.361,259.121 238.202,258.816 241.667 C 258.690 243.093,258.468 245.593,258.322 247.222 C 258.176 248.852,257.929 250.235,257.772 250.296 C 257.615 250.356,257.571 250.732,257.676 251.131 C 257.780 251.530,257.665 252.098,257.419 252.393 C 257.174 252.689,257.086 253.112,257.223 253.335 C 257.361 253.557,257.350 254.023,257.200 254.370 C 257.050 254.716,256.964 255.375,257.008 255.833 C 257.053 256.292,256.953 256.668,256.786 256.669 C 256.618 256.671,256.446 257.449,256.402 258.399 C 256.358 259.348,256.181 260.222,256.008 260.340 C 255.834 260.459,255.654 261.306,255.606 262.222 C 255.558 263.139,255.359 263.945,255.164 264.013 C 254.970 264.081,254.877 264.248,254.958 264.383 C 255.108 264.635,254.440 267.902,253.694 270.556 C 253.465 271.370,253.282 272.355,253.287 272.744 C 253.292 273.133,253.104 273.800,252.869 274.226 C 252.633 274.652,252.485 275.292,252.540 275.648 C 252.595 276.005,252.504 276.297,252.338 276.297 C 252.173 276.297,252.000 276.827,251.954 277.473 C 251.909 278.119,251.742 278.744,251.584 278.861 C 251.270 279.094,251.092 279.646,250.829 281.204 C 250.734 281.764,250.499 282.222,250.306 282.222 C 250.114 282.222,250.052 282.377,250.169 282.567 C 250.287 282.757,250.220 283.012,250.022 283.134 C 249.824 283.257,249.756 283.602,249.871 283.901 C 249.985 284.200,249.877 284.444,249.630 284.444 C 249.382 284.444,249.276 284.694,249.393 285.000 C 249.510 285.306,249.463 285.556,249.289 285.556 C 249.114 285.556,248.994 285.764,249.023 286.019 C 249.108 286.786,247.625 291.481,247.298 291.481 C 247.130 291.481,247.089 291.637,247.206 291.826 C 247.324 292.016,247.247 292.277,247.037 292.407 C 246.827 292.537,246.734 292.773,246.832 292.931 C 247.042 293.271,245.988 296.170,244.060 300.556 C 243.791 301.167,243.539 301.792,243.499 301.944 C 243.459 302.097,243.384 302.306,243.333 302.407 C 243.282 302.509,243.212 302.718,243.178 302.870 C 242.969 303.797,242.036 305.926,241.839 305.926 C 241.710 305.926,241.605 306.135,241.605 306.390 C 241.605 307.162,239.554 311.481,239.187 311.481 C 238.999 311.481,238.948 311.648,239.074 311.852 C 239.200 312.056,239.126 312.222,238.911 312.222 C 238.695 312.222,238.552 312.347,238.592 312.500 C 238.730 313.021,238.099 314.444,237.731 314.444 C 237.529 314.444,237.467 314.612,237.593 314.816 C 237.836 315.209,233.462 323.801,232.911 324.013 C 232.733 324.081,232.674 324.276,232.779 324.446 C 232.884 324.616,232.760 324.981,232.503 325.257 C 232.247 325.533,231.986 325.991,231.924 326.274 C 231.862 326.558,231.458 327.157,231.027 327.605 C 230.596 328.052,230.206 328.675,230.160 328.988 C 230.059 329.673,228.520 331.918,227.863 332.338 C 227.604 332.503,227.489 332.795,227.607 332.986 C 227.725 333.177,227.645 333.333,227.429 333.333 C 227.214 333.333,227.037 333.558,227.037 333.832 C 227.037 334.106,226.412 334.975,225.648 335.762 C 224.884 336.549,224.509 337.040,224.815 336.852 C 225.120 336.664,224.643 337.420,223.753 338.533 C 222.863 339.645,221.988 340.514,221.809 340.463 C 221.629 340.412,221.523 340.514,221.574 340.689 C 221.718 341.182,217.795 345.553,217.295 345.456 C 217.051 345.409,216.887 345.559,216.930 345.789 C 216.973 346.020,216.681 346.504,216.282 346.865 C 215.882 347.227,215.556 347.406,215.556 347.265 C 215.556 347.123,214.725 347.851,213.710 348.882 C 212.620 349.989,211.408 350.848,210.747 350.980 C 210.133 351.103,209.630 351.314,209.630 351.448 C 209.630 353.064,200.878 353.872,199.257 352.406 C 198.808 351.999,198.375 351.708,198.294 351.759 C 197.868 352.029,197.400 351.793,197.628 351.424 C 197.794 351.156,197.729 351.097,197.454 351.267 C 196.902 351.609,193.704 348.286,193.704 347.370 C 193.704 347.007,193.541 346.610,193.343 346.488 C 192.668 346.070,191.588 343.281,191.314 341.242 C 191.235 340.661,190.899 339.546,190.567 338.765 C 190.236 337.984,190.010 337.067,190.065 336.728 C 190.121 336.389,190.025 335.885,189.852 335.608 C 189.154 334.494,188.836 321.076,189.364 315.000 C 189.802 309.949,190.266 305.538,190.531 303.889 C 190.662 303.074,190.762 301.699,190.752 300.833 C 190.743 299.968,190.863 299.259,191.019 299.259 C 191.176 299.259,191.324 298.764,191.349 298.159 C 191.374 297.553,191.520 296.762,191.674 296.399 C 192.084 295.437,192.255 294.515,192.468 292.130 C 192.573 290.958,192.820 290.000,193.018 290.000 C 193.215 290.000,193.281 289.845,193.164 289.655 C 193.047 289.466,193.120 289.206,193.327 289.078 C 193.534 288.950,193.704 287.950,193.704 286.856 C 193.704 285.571,193.903 284.669,194.266 284.305 C 194.590 283.982,194.856 282.986,194.892 281.964 C 194.929 280.903,195.225 279.829,195.625 279.302 C 195.994 278.816,196.296 277.891,196.296 277.246 C 196.296 276.602,196.496 275.874,196.741 275.630 C 196.985 275.385,197.090 275.185,196.974 275.185 C 196.559 275.185,197.403 271.804,197.955 271.251 C 198.473 270.733,198.693 269.756,198.548 268.620 C 198.516 268.370,198.785 267.715,199.146 267.164 C 199.507 266.614,199.749 265.758,199.684 265.262 C 199.615 264.735,199.718 264.456,199.934 264.589 C 200.146 264.720,200.226 264.526,200.122 264.130 C 200.023 263.752,200.211 263.175,200.540 262.846 C 200.869 262.518,201.152 262.118,201.169 261.958 C 201.186 261.798,201.347 261.281,201.526 260.809 C 201.705 260.338,201.852 259.740,201.852 259.482 C 201.852 259.224,201.963 258.902,202.098 258.766 C 202.234 258.631,202.390 258.089,202.447 257.562 C 202.503 257.035,202.809 256.207,203.126 255.722 C 203.444 255.237,203.704 254.585,203.704 254.272 C 203.704 253.960,203.870 253.704,204.074 253.704 C 204.278 253.704,204.417 253.579,204.384 253.426 C 204.259 252.854,204.909 251.111,205.247 251.111 C 205.441 251.111,205.507 250.962,205.395 250.780 C 205.182 250.436,205.616 249.267,207.469 245.185 C 209.135 241.517,209.755 240.271,210.421 239.259 C 210.756 238.750,211.050 238.167,211.075 237.963 C 211.185 237.057,211.561 236.296,211.899 236.296 C 212.101 236.296,212.155 236.117,212.020 235.898 C 211.884 235.678,212.128 235.168,212.561 234.764 C 212.995 234.360,213.253 233.873,213.135 233.682 C 213.016 233.490,213.124 233.333,213.373 233.333 C 213.623 233.333,213.731 233.237,213.614 233.120 C 213.379 232.885,215.847 228.099,216.391 227.736 C 216.577 227.612,216.691 227.445,216.644 227.366 C 216.479 227.092,218.165 224.074,218.483 224.074 C 218.659 224.074,218.898 223.782,219.015 223.426 C 219.330 222.461,221.183 219.433,222.092 218.396 C 222.529 217.897,223.000 217.135,223.137 216.702 C 223.275 216.265,223.565 216.025,223.788 216.163 C 224.008 216.299,224.083 216.240,223.954 216.031 C 223.825 215.823,224.152 215.172,224.681 214.585 C 225.210 213.999,225.514 213.753,225.357 214.039 C 225.165 214.387,225.214 214.471,225.504 214.291 C 225.743 214.143,225.852 213.885,225.748 213.715 C 225.643 213.546,226.182 212.860,226.946 212.190 C 227.709 211.519,228.333 210.839,228.333 210.677 C 228.333 210.179,231.997 206.844,232.400 206.975 C 232.608 207.043,232.654 206.975,232.503 206.824 C 232.160 206.481,232.937 205.496,233.350 205.751 C 233.516 205.854,233.773 205.743,233.921 205.504 C 234.098 205.217,234.013 205.161,233.668 205.340 C 233.382 205.488,233.638 205.190,234.238 204.678 C 234.837 204.167,235.488 203.847,235.684 203.968 C 235.880 204.089,235.926 204.003,235.786 203.777 C 235.573 203.432,237.303 202.189,237.959 202.215 C 238.759 202.246,238.904 202.176,238.704 201.852 C 238.468 201.470,238.519 201.446,239.882 201.301 C 240.326 201.253,240.950 200.954,241.269 200.636 C 242.066 199.839,248.752 199.935,249.392 200.753 " stroke="none" fill="#fc8c04" fill-rule="evenodd"></path><path id="path2" d="M95.333 13.611 C 95.476 16.819,95.649 20.028,95.718 20.741 C 95.787 21.454,95.957 23.787,96.095 25.926 C 96.326 29.495,97.020 36.938,97.632 42.407 C 97.768 43.630,98.107 45.276,98.385 46.065 C 98.662 46.855,98.889 48.152,98.889 48.947 C 98.889 49.743,99.128 50.966,99.420 51.664 C 99.712 52.363,100.066 53.733,100.208 54.708 C 100.349 55.683,100.649 56.815,100.874 57.222 C 101.098 57.630,101.307 58.213,101.337 58.519 C 101.505 60.226,104.835 70.897,105.671 72.407 C 105.897 72.815,106.143 73.648,106.218 74.259 C 106.294 74.870,106.569 75.620,106.831 75.926 C 107.092 76.231,107.614 77.315,107.990 78.333 C 109.815 83.278,115.568 93.757,119.699 99.665 C 120.781 101.212,122.359 103.471,123.206 104.686 C 127.411 110.718,140.211 123.114,146.111 126.868 C 146.722 127.257,147.306 127.673,147.407 127.793 C 147.809 128.265,155.071 133.263,156.193 133.840 C 156.850 134.177,158.017 134.880,158.786 135.403 C 160.446 136.529,173.242 143.015,175.805 144.029 C 176.788 144.417,178.509 145.150,179.630 145.656 C 188.619 149.720,206.666 155.185,211.094 155.185 L 212.708 155.185 212.460 148.056 C 212.114 138.151,210.902 125.506,209.591 118.148 C 208.869 114.095,204.797 97.615,204.424 97.241 C 204.232 97.047,204.070 96.547,204.064 96.130 C 204.059 95.712,203.559 94.209,202.953 92.788 C 202.347 91.368,201.852 89.963,201.852 89.665 C 201.852 88.999,201.226 87.628,196.846 78.704 C 192.762 70.382,191.626 68.336,189.440 65.370 C 188.539 64.148,187.354 62.398,186.805 61.481 C 186.257 60.565,185.396 59.398,184.891 58.889 C 184.386 58.380,183.294 57.046,182.464 55.926 C 175.096 45.985,157.799 32.284,142.778 24.493 C 141.556 23.859,139.722 22.846,138.704 22.241 C 137.685 21.637,136.647 21.135,136.396 21.127 C 136.145 21.118,134.479 20.425,132.692 19.586 C 128.426 17.583,118.693 13.704,117.933 13.704 C 117.605 13.704,116.894 13.473,116.353 13.191 C 115.358 12.671,110.862 11.224,109.376 10.945 C 108.931 10.861,108.233 10.614,107.826 10.396 C 107.419 10.178,106.594 10.000,105.993 10.000 C 105.391 10.000,104.422 9.751,103.839 9.447 C 103.255 9.142,102.194 8.887,101.481 8.878 C 100.769 8.870,99.769 8.624,99.259 8.333 C 98.750 8.042,97.600 7.798,96.703 7.791 L 95.073 7.778 95.333 13.611 M98.276 8.704 C 99.008 9.009,100.070 9.258,100.636 9.257 C 101.608 9.256,103.160 9.674,107.037 10.983 C 107.954 11.293,109.370 11.680,110.185 11.844 C 111.000 12.009,112.250 12.351,112.963 12.605 C 115.898 13.653,116.965 14.017,119.259 14.752 C 121.306 15.407,126.227 17.408,133.974 20.733 C 134.946 21.150,136.241 21.757,136.852 22.082 C 137.463 22.407,140.046 23.760,142.593 25.089 C 157.642 32.943,176.461 47.944,182.347 56.778 C 183.053 57.837,184.079 59.120,184.628 59.630 C 185.177 60.139,185.865 61.016,186.158 61.578 C 186.450 62.140,187.768 64.130,189.086 65.998 C 190.403 67.867,191.481 69.560,191.481 69.761 C 191.481 69.962,191.719 70.390,192.009 70.712 C 192.527 71.285,195.936 78.024,198.676 83.889 C 199.438 85.519,200.297 87.324,200.586 87.900 C 200.875 88.477,201.111 89.190,201.111 89.486 C 201.111 90.028,202.675 94.084,203.343 95.273 C 203.541 95.626,203.704 96.303,203.704 96.776 C 203.704 97.249,203.948 97.960,204.247 98.355 C 204.547 98.751,204.797 99.446,204.803 99.901 C 204.810 100.356,205.570 103.689,206.494 107.308 C 207.417 110.928,208.343 114.889,208.550 116.111 C 210.195 125.786,211.418 137.862,211.730 147.500 L 211.967 154.815 211.076 154.817 C 210.586 154.818,209.435 154.581,208.519 154.291 C 207.602 154.001,205.602 153.484,204.074 153.144 C 202.546 152.804,200.546 152.295,199.630 152.014 C 198.713 151.733,196.713 151.153,195.185 150.725 C 193.657 150.298,192.074 149.790,191.667 149.598 C 191.259 149.406,190.426 149.097,189.815 148.912 C 186.990 148.059,177.869 144.321,173.519 142.234 C 159.829 135.666,157.229 134.130,145.784 125.852 C 144.742 125.098,143.292 124.072,142.563 123.572 C 139.338 121.361,127.313 109.318,124.541 105.523 C 116.576 94.618,106.667 76.662,106.667 73.134 C 106.667 72.714,106.514 72.212,106.328 72.019 C 105.871 71.543,103.862 65.768,102.727 61.667 C 100.477 53.537,100.027 51.707,99.587 48.889 C 99.412 47.769,99.026 45.935,98.730 44.815 C 97.742 41.082,96.469 26.920,96.074 15.278 C 95.804 7.354,95.711 7.632,98.276 8.704 " stroke="none" fill="#98df6e" fill-rule="evenodd"></path><path id="path3" d="M304.160 216.296 C 304.160 217.009,304.236 217.301,304.329 216.944 C 304.423 216.588,304.423 216.005,304.329 215.648 C 304.236 215.292,304.160 215.583,304.160 216.296 M258.975 228.148 C 258.975 228.861,259.051 229.153,259.144 228.796 C 259.237 228.440,259.237 227.856,259.144 227.500 C 259.051 227.144,258.975 227.435,258.975 228.148 M305.271 233.704 C 305.271 234.417,305.347 234.708,305.440 234.352 C 305.534 233.995,305.534 233.412,305.440 233.056 C 305.347 232.699,305.271 232.991,305.271 233.704 M299.388 244.939 C 297.252 247.226,294.360 251.481,294.942 251.481 C 295.037 251.481,295.630 250.569,296.259 249.453 C 296.889 248.338,298.508 246.255,299.858 244.824 C 301.208 243.393,302.225 242.222,302.118 242.222 C 302.012 242.222,300.783 243.445,299.388 244.939 M292.356 262.593 C 292.356 264.528,292.418 265.319,292.494 264.352 C 292.571 263.384,292.571 261.801,292.494 260.833 C 292.418 259.866,292.356 260.657,292.356 262.593 M285.417 274.680 C 284.460 275.624,283.493 276.749,283.269 277.180 C 283.046 277.611,282.935 277.880,283.024 277.778 C 283.113 277.676,284.161 276.551,285.353 275.278 C 287.889 272.569,287.929 272.204,285.417 274.680 M280.847 285.370 C 280.849 286.389,280.921 286.762,281.007 286.199 C 281.092 285.636,281.089 284.802,281.001 284.347 C 280.914 283.891,280.844 284.352,280.847 285.370 M281.862 290.926 C 281.855 291.758,284.109 295.096,285.614 296.481 L 287.222 297.962 285.665 296.296 C 284.808 295.379,283.603 293.713,282.986 292.593 C 282.370 291.472,281.864 290.722,281.862 290.926 M285.687 305.370 C 285.686 307.204,285.749 308.000,285.826 307.141 C 285.904 306.281,285.905 304.781,285.828 303.807 C 285.752 302.834,285.688 303.537,285.687 305.370 M290.185 317.037 C 290.981 317.852,291.715 318.519,291.817 318.519 C 291.919 318.519,291.351 317.852,290.556 317.037 C 289.760 316.222,289.026 315.556,288.924 315.556 C 288.822 315.556,289.390 316.222,290.185 317.037 " stroke="none" fill="#e9c069" fill-rule="evenodd"></path><path id="path4" d="M254.063 120.904 C 247.905 123.174,242.769 127.543,238.145 134.444 C 236.848 136.380,235.541 138.210,235.240 138.513 C 234.311 139.448,230.069 148.507,229.088 151.650 C 227.754 155.926,227.413 158.684,227.410 165.235 L 227.407 171.026 226.389 171.679 C 222.221 174.353,208.306 187.862,202.221 195.141 C 201.305 196.237,200.386 197.320,200.180 197.548 C 199.973 197.776,198.759 199.296,197.481 200.926 C 196.203 202.556,194.685 204.424,194.106 205.078 C 193.527 205.732,192.962 206.506,192.850 206.797 C 192.739 207.088,191.357 209.386,189.780 211.904 C 185.216 219.192,183.186 222.594,181.289 226.136 C 180.314 227.955,179.128 230.154,178.653 231.022 C 178.178 231.889,177.779 232.722,177.767 232.873 C 177.698 233.750,177.283 234.815,177.011 234.815 C 176.838 234.815,176.442 235.670,176.131 236.714 C 175.821 237.759,175.423 238.801,175.246 239.029 C 175.070 239.258,174.467 240.611,173.907 242.037 C 173.347 243.463,172.224 246.296,171.412 248.333 C 170.599 250.370,169.682 252.870,169.374 253.889 C 169.065 254.907,168.593 256.241,168.324 256.852 C 168.055 257.463,167.724 258.630,167.588 259.444 C 167.452 260.259,167.197 261.100,167.022 261.313 C 166.694 261.710,165.704 265.884,164.393 272.402 C 163.984 274.437,163.484 276.300,163.282 276.543 C 163.080 276.787,162.828 277.956,162.722 279.141 C 162.617 280.326,162.313 281.880,162.049 282.593 C 161.784 283.306,161.453 284.889,161.313 286.111 C 161.172 287.333,160.833 289.667,160.558 291.296 C 160.051 294.295,159.985 294.805,159.273 301.111 C 157.818 314.016,157.821 334.563,159.281 343.704 C 159.460 344.824,159.711 346.574,159.838 347.593 C 159.966 348.611,160.388 350.398,160.776 351.562 C 161.164 352.727,161.481 354.249,161.481 354.943 C 161.481 355.637,161.731 356.413,162.037 356.667 C 162.343 356.920,162.593 357.654,162.593 358.296 C 162.593 358.939,162.821 359.794,163.101 360.195 C 163.380 360.597,163.734 361.499,163.886 362.199 C 164.231 363.783,165.499 366.681,165.516 365.926 C 165.523 365.620,165.291 364.954,165.000 364.444 C 164.709 363.935,164.459 363.102,164.445 362.593 C 164.431 362.083,164.097 361.000,163.704 360.185 C 163.310 359.370,162.977 358.370,162.962 357.963 C 162.948 357.556,162.699 356.806,162.407 356.296 C 162.116 355.787,161.872 354.849,161.865 354.212 C 161.858 353.575,161.614 352.484,161.324 351.789 C 160.063 348.772,158.560 335.041,158.534 326.313 C 158.500 314.558,159.209 304.249,160.801 293.333 C 161.202 290.583,161.664 287.240,161.826 285.904 C 161.988 284.567,162.288 283.150,162.491 282.755 C 162.694 282.360,162.965 280.991,163.092 279.713 C 163.220 278.435,163.558 276.935,163.843 276.380 C 164.129 275.825,164.546 274.287,164.770 272.963 C 164.995 271.639,165.332 269.889,165.519 269.074 C 165.706 268.259,166.067 266.593,166.320 265.370 C 166.574 264.148,167.089 262.471,167.465 261.642 C 167.841 260.814,168.148 259.778,168.148 259.340 C 168.148 258.902,168.380 257.996,168.662 257.327 C 168.945 256.658,169.434 255.278,169.748 254.259 C 170.537 251.705,173.337 244.341,173.692 243.889 C 174.169 243.281,176.667 236.807,176.667 236.180 C 176.667 235.860,176.826 235.501,177.021 235.380 C 177.216 235.260,178.451 232.924,179.766 230.189 C 181.961 225.625,186.433 217.910,190.428 211.796 C 191.313 210.442,192.497 208.608,193.058 207.722 C 199.022 198.314,218.252 177.764,225.751 172.787 L 227.778 171.442 227.778 166.174 C 227.778 152.902,231.148 144.048,241.184 130.955 C 251.949 116.911,268.107 117.559,278.073 132.437 C 281.362 137.347,282.954 139.840,282.958 140.087 C 282.961 140.237,283.463 141.172,284.074 142.165 C 284.685 143.158,285.185 144.156,285.185 144.383 C 285.185 144.609,285.586 145.674,286.076 146.749 C 286.565 147.824,287.399 149.652,287.927 150.810 C 288.456 151.969,288.889 153.144,288.889 153.422 C 288.889 153.699,289.044 154.084,289.233 154.278 C 289.604 154.657,290.484 156.947,291.289 159.630 C 291.564 160.546,291.966 161.796,292.182 162.407 C 293.541 166.256,294.815 170.403,294.817 170.985 C 294.818 171.360,295.064 172.136,295.363 172.709 C 295.662 173.282,296.020 174.604,296.158 175.646 C 296.296 176.688,296.633 177.969,296.906 178.493 C 297.179 179.016,297.404 179.980,297.405 180.636 C 297.406 181.291,297.644 182.374,297.932 183.043 C 298.221 183.712,298.646 185.509,298.876 187.037 C 299.107 188.565,299.692 191.565,300.178 193.704 C 301.046 197.532,301.178 198.366,301.840 204.259 C 302.023 205.889,302.497 208.472,302.893 210.000 C 303.354 211.780,303.709 214.839,303.880 218.519 C 304.195 225.269,305.034 235.041,305.503 237.407 L 305.833 239.074 305.880 237.709 C 305.905 236.959,305.770 235.933,305.579 235.431 C 305.388 234.928,305.126 231.709,304.998 228.277 C 304.869 224.845,304.609 220.708,304.419 219.084 C 304.229 217.460,304.074 215.361,304.074 214.421 C 304.074 213.480,303.754 211.458,303.362 209.926 C 302.970 208.394,302.540 205.993,302.407 204.589 C 302.273 203.185,302.032 201.454,301.870 200.741 C 301.709 200.028,301.550 198.816,301.517 198.048 C 301.484 197.280,301.282 196.196,301.067 195.640 C 300.625 194.495,300.241 192.514,299.454 187.314 C 299.153 185.327,298.653 183.210,298.342 182.610 C 298.032 182.009,297.778 180.994,297.778 180.352 C 297.778 179.711,297.551 178.661,297.273 178.019 C 296.995 177.377,296.590 176.019,296.372 175.000 C 295.804 172.340,294.835 168.825,294.432 167.963 C 294.242 167.556,293.992 166.646,293.876 165.941 C 293.760 165.236,293.522 164.486,293.346 164.274 C 293.170 164.062,293.004 163.722,292.977 163.519 C 292.840 162.486,291.365 157.837,290.902 156.980 C 290.609 156.439,290.370 155.815,290.370 155.592 C 290.370 155.369,289.881 154.145,289.283 152.871 C 288.686 151.598,287.839 149.639,287.403 148.519 C 285.427 143.449,284.967 142.532,281.699 137.147 C 276.306 128.260,270.130 122.336,264.774 120.910 C 262.297 120.251,255.846 120.247,254.063 120.904 M241.481 200.376 C 241.091 200.632,241.310 200.669,242.222 200.502 C 243.820 200.209,244.121 199.998,242.932 200.006 C 242.440 200.009,241.787 200.175,241.481 200.376 M247.593 200.548 C 248.611 200.822,249.509 200.982,249.588 200.904 C 249.849 200.646,247.750 199.999,246.735 200.025 C 246.035 200.043,246.289 200.197,247.593 200.548 M250.185 201.345 C 250.389 201.523,251.222 202.252,252.036 202.964 L 253.517 204.259 252.407 203.024 C 251.796 202.344,250.963 201.615,250.556 201.404 C 250.148 201.193,249.981 201.166,250.185 201.345 M236.481 202.903 C 235.870 203.276,234.454 204.455,233.333 205.524 L 231.296 207.468 233.922 205.308 C 235.365 204.120,236.865 202.950,237.255 202.707 C 237.644 202.464,237.880 202.257,237.778 202.245 C 237.676 202.234,237.093 202.530,236.481 202.903 M225.868 213.241 C 224.954 214.208,223.904 215.500,223.535 216.111 C 222.946 217.085,222.995 217.062,223.928 215.926 C 224.514 215.213,225.641 213.921,226.433 213.056 C 227.224 212.190,227.795 211.481,227.701 211.481 C 227.607 211.481,226.782 212.273,225.868 213.241 M257.470 213.333 C 257.489 214.296,258.072 215.876,258.085 215.000 C 258.091 214.593,257.953 213.926,257.778 213.519 C 257.583 213.065,257.464 212.993,257.470 213.333 M259.004 223.148 C 259.006 224.370,259.075 224.826,259.157 224.160 C 259.240 223.494,259.238 222.494,259.154 221.938 C 259.069 221.381,259.002 221.926,259.004 223.148 M258.990 230.741 C 258.990 231.657,259.062 232.032,259.150 231.574 C 259.239 231.116,259.239 230.366,259.150 229.907 C 259.062 229.449,258.990 229.824,258.990 230.741 M259.020 235.741 C 259.019 237.574,259.082 238.371,259.160 237.511 C 259.237 236.652,259.238 235.152,259.162 234.178 C 259.085 233.204,259.021 233.907,259.020 235.741 M258.619 242.593 C 258.619 243.509,258.692 243.884,258.780 243.426 C 258.868 242.968,258.868 242.218,258.780 241.759 C 258.692 241.301,258.619 241.676,258.619 242.593 M208.499 242.829 C 208.295 243.367,208.196 243.875,208.280 243.959 C 208.364 244.043,208.610 243.603,208.827 242.982 C 209.308 241.600,209.018 241.465,208.499 242.829 M299.610 244.352 L 298.333 245.741 299.722 244.464 C 300.486 243.762,301.111 243.137,301.111 243.075 C 301.111 242.793,300.798 243.059,299.610 244.352 M207.233 245.648 C 206.955 246.310,206.376 247.667,205.947 248.664 C 205.518 249.660,205.254 250.563,205.361 250.670 C 205.468 250.777,205.556 250.768,205.556 250.650 C 205.556 250.532,206.133 249.088,206.838 247.440 C 207.543 245.793,208.035 244.444,207.930 244.444 C 207.825 244.444,207.512 244.986,207.233 245.648 M257.864 249.259 C 257.864 249.972,257.940 250.264,258.033 249.907 C 258.126 249.551,258.126 248.968,258.033 248.611 C 257.940 248.255,257.864 248.546,257.864 249.259 M200.043 263.740 C 199.816 264.392,199.641 265.192,199.654 265.518 C 199.668 265.844,199.911 265.368,200.194 264.459 C 200.786 262.557,200.662 261.964,200.043 263.740 M193.935 284.644 C 193.808 284.975,193.718 285.524,193.736 285.864 C 193.753 286.203,193.914 285.990,194.094 285.389 C 194.443 284.220,194.319 283.641,193.935 284.644 M190.827 300.370 C 190.827 301.083,190.903 301.375,190.996 301.019 C 191.089 300.662,191.089 300.079,190.996 299.722 C 190.903 299.366,190.827 299.657,190.827 300.370 M190.093 306.852 C 190.098 307.667,190.173 307.956,190.262 307.496 C 190.351 307.035,190.347 306.368,190.254 306.014 C 190.162 305.660,190.089 306.037,190.093 306.852 M240.070 309.462 C 238.954 311.759,239.078 312.080,240.228 309.871 C 240.742 308.884,241.099 308.012,241.021 307.935 C 240.944 307.857,240.516 308.545,240.070 309.462 M236.373 317.234 C 235.724 318.552,235.271 319.630,235.368 319.630 C 235.617 319.630,237.856 315.140,237.690 314.974 C 237.616 314.900,237.023 315.917,236.373 317.234 M189.034 323.333 C 189.034 326.083,189.092 327.208,189.164 325.833 C 189.235 324.458,189.235 322.208,189.164 320.833 C 189.092 319.458,189.034 320.583,189.034 323.333 M294.352 322.325 C 293.995 323.189,293.698 324.228,293.692 324.634 C 293.685 325.039,293.435 325.694,293.136 326.089 C 292.837 326.485,292.591 327.151,292.590 327.571 C 292.589 327.990,292.257 328.833,291.852 329.444 C 291.447 330.056,291.115 330.864,291.114 331.240 C 291.112 331.617,290.876 332.450,290.588 333.092 C 289.595 335.308,287.469 340.558,287.229 341.389 C 287.096 341.847,286.832 342.222,286.642 342.222 C 286.452 342.222,286.296 342.412,286.296 342.645 C 286.296 343.304,283.460 349.137,283.002 349.420 C 282.777 349.560,282.593 349.996,282.593 350.389 C 282.593 350.783,282.266 351.482,281.866 351.942 C 281.467 352.402,280.746 353.528,280.264 354.444 C 278.807 357.216,276.738 360.431,274.902 362.778 C 273.945 364.000,272.811 365.510,272.382 366.132 C 271.613 367.246,271.269 367.669,268.356 371.073 C 265.869 373.979,259.267 380.370,258.752 380.370 C 258.483 380.370,257.964 380.701,257.599 381.104 C 257.234 381.508,255.622 382.715,254.017 383.787 C 252.413 384.860,251.261 385.791,251.457 385.856 C 253.161 386.424,266.681 374.205,272.037 367.258 C 273.069 365.919,274.052 364.689,276.242 361.998 C 276.722 361.408,277.389 360.340,277.724 359.625 C 278.059 358.909,278.685 357.826,279.116 357.217 C 280.535 355.211,282.963 351.043,282.965 350.610 C 282.967 350.376,283.303 349.685,283.713 349.074 C 284.122 348.463,284.958 346.880,285.570 345.556 C 286.182 344.231,286.847 342.898,287.048 342.593 C 287.478 341.938,287.900 340.975,288.430 339.444 C 289.016 337.747,290.407 334.376,290.974 333.276 C 291.253 332.735,291.483 331.985,291.484 331.610 C 291.485 331.234,291.817 330.426,292.222 329.815 C 292.627 329.204,292.959 328.245,292.961 327.685 C 292.962 327.125,293.122 326.667,293.317 326.667 C 293.511 326.667,293.769 326.042,293.889 325.278 C 294.010 324.514,294.369 323.361,294.688 322.717 C 295.007 322.072,295.208 321.367,295.134 321.149 C 295.060 320.932,294.708 321.461,294.352 322.325 M189.365 331.667 C 189.368 332.685,189.440 333.058,189.525 332.495 C 189.610 331.932,189.608 331.099,189.520 330.643 C 189.432 330.188,189.362 330.648,189.365 331.667 M190.025 336.704 C 189.996 337.386,190.763 339.731,190.953 339.541 C 191.022 339.472,190.847 338.672,190.564 337.763 C 190.281 336.854,190.038 336.378,190.025 336.704 M223.489 338.426 C 222.711 339.394,220.590 341.852,218.777 343.889 L 215.480 347.593 218.676 344.270 C 221.656 341.171,225.444 336.667,225.069 336.667 C 224.978 336.667,224.267 337.458,223.489 338.426 M193.704 347.635 C 193.705 348.164,196.383 350.959,197.593 351.693 C 198.333 352.143,198.119 351.842,196.951 350.788 C 195.988 349.919,194.863 348.781,194.451 348.258 C 194.040 347.735,193.704 347.455,193.704 347.635 M212.088 349.853 C 211.097 350.545,210.447 351.111,210.643 351.111 C 211.046 351.111,214.074 348.984,214.074 348.701 C 214.074 348.458,214.140 348.420,212.088 349.853 M199.575 352.686 C 199.762 352.873,200.309 352.964,200.791 352.888 C 201.532 352.771,201.480 352.719,200.451 352.549 C 199.715 352.427,199.370 352.481,199.575 352.686 M202.500 353.224 C 202.958 353.313,203.708 353.313,204.167 353.224 C 204.625 353.136,204.250 353.064,203.333 353.064 C 202.417 353.064,202.042 353.136,202.500 353.224 M165.883 367.445 C 166.305 368.514,168.910 373.623,170.184 375.881 C 172.057 379.199,178.251 385.903,182.326 389.024 C 184.936 391.022,192.064 394.726,192.486 394.304 C 192.603 394.187,192.383 393.982,191.997 393.848 C 184.759 391.331,174.458 382.538,170.350 375.370 C 169.065 373.129,166.667 368.224,166.667 367.838 C 166.667 367.651,166.411 367.286,166.099 367.027 C 165.605 366.617,165.577 366.671,165.883 367.445 M249.616 386.456 C 249.159 386.904,242.326 390.404,239.259 391.762 C 238.750 391.988,238.551 392.183,238.817 392.197 C 239.578 392.237,243.668 390.332,248.519 387.680 C 249.994 386.873,251.080 385.926,250.529 385.926 C 250.325 385.926,249.915 386.165,249.616 386.456 M237.037 392.778 C 236.400 393.142,236.299 393.311,236.714 393.320 C 237.045 393.327,237.524 393.083,237.778 392.778 C 238.342 392.098,238.226 392.098,237.037 392.778 M231.852 394.328 C 231.343 394.412,230.176 394.711,229.259 394.993 C 226.852 395.734,223.855 396.296,222.287 396.300 C 220.431 396.306,218.148 396.706,218.148 397.026 C 218.148 397.505,230.127 395.666,230.309 395.160 C 230.377 394.970,230.877 394.812,231.420 394.809 C 231.963 394.806,232.657 394.642,232.963 394.444 C 233.534 394.076,233.440 394.066,231.852 394.328 M193.519 394.712 C 193.926 394.813,194.426 395.025,194.630 395.185 C 195.146 395.590,199.518 396.673,200.493 396.637 C 200.935 396.621,200.130 396.306,198.704 395.938 C 197.278 395.571,195.642 395.084,195.068 394.857 C 194.495 394.630,193.745 394.464,193.402 394.487 C 192.932 394.520,192.961 394.575,193.519 394.712 M202.134 396.929 C 202.595 397.017,203.261 397.014,203.615 396.921 C 203.970 396.828,203.593 396.756,202.778 396.760 C 201.963 396.764,201.673 396.840,202.134 396.929 M206.667 397.407 C 207.396 397.879,208.254 397.879,207.963 397.407 C 207.837 397.204,207.369 397.040,206.923 397.043 C 206.263 397.047,206.215 397.116,206.667 397.407 M215.796 397.291 C 215.656 397.430,214.837 397.660,213.975 397.800 C 212.471 398.045,212.460 398.056,213.704 398.073 C 215.325 398.096,218.501 397.137,217.006 397.076 C 216.480 397.055,215.935 397.151,215.796 397.291 " stroke="none" fill="#fcac48" fill-rule="evenodd"></path></g></svg>